<mxfile host="65bd71144e">
    <diagram id="Uj27u6g6IByhOTaoBkWt" name="Flowchart">
        <mxGraphModel dx="690" dy="564" grid="1" gridSize="10" guides="1" tooltips="1" connect="1" arrows="1" fold="1" page="1" pageScale="1" pageWidth="827" pageHeight="1169" math="0" shadow="0">
            <root>
                <mxCell id="0"/>
                <mxCell id="1" parent="0"/>
                <mxCell id="67" style="edgeStyle=orthogonalEdgeStyle;rounded=0;html=1;exitX=0.5;exitY=1;exitDx=0;exitDy=0;entryX=0.5;entryY=0;entryDx=0;entryDy=0;" edge="1" parent="1" source="3" target="62">
                    <mxGeometry relative="1" as="geometry"/>
                </mxCell>
                <mxCell id="3" value="Get number" style="shape=parallelogram;html=1;strokeWidth=2;perimeter=parallelogramPerimeter;whiteSpace=wrap;rounded=1;arcSize=12;size=0.23;" parent="1" vertex="1">
                    <mxGeometry x="380" y="350" width="100" height="50" as="geometry"/>
                </mxCell>
                <mxCell id="68" style="edgeStyle=orthogonalEdgeStyle;rounded=0;html=1;entryX=0.5;entryY=0;entryDx=0;entryDy=0;" edge="1" parent="1" source="5" target="3">
                    <mxGeometry relative="1" as="geometry"/>
                </mxCell>
                <mxCell id="5" value="Start" style="strokeWidth=2;html=1;shape=mxgraph.flowchart.terminator;whiteSpace=wrap;" parent="1" vertex="1">
                    <mxGeometry x="380" y="230" width="100" height="60" as="geometry"/>
                </mxCell>
                <mxCell id="11" value="Stop" style="strokeWidth=2;html=1;shape=mxgraph.flowchart.terminator;whiteSpace=wrap;" parent="1" vertex="1">
                    <mxGeometry x="380" y="1050" width="100" height="60" as="geometry"/>
                </mxCell>
                <mxCell id="57" style="edgeStyle=orthogonalEdgeStyle;rounded=0;html=1;entryX=0.5;entryY=0;entryDx=0;entryDy=0;entryPerimeter=0;" edge="1" parent="1" source="23" target="11">
                    <mxGeometry relative="1" as="geometry"/>
                </mxCell>
                <mxCell id="23" value="print&quot;You guessed correct!&quot;" style="shape=parallelogram;html=1;strokeWidth=2;perimeter=parallelogramPerimeter;whiteSpace=wrap;rounded=1;arcSize=12;size=0.23;" parent="1" vertex="1">
                    <mxGeometry x="384" y="840" width="92" height="70" as="geometry"/>
                </mxCell>
                <mxCell id="71" style="edgeStyle=orthogonalEdgeStyle;rounded=0;html=1;entryX=1;entryY=0.5;entryDx=0;entryDy=0;entryPerimeter=0;" edge="1" parent="1" source="24" target="11">
                    <mxGeometry relative="1" as="geometry">
                        <Array as="points">
                            <mxPoint x="610" y="1080"/>
                        </Array>
                    </mxGeometry>
                </mxCell>
                <mxCell id="24" value="print&quot;You guessed incorrect!&quot;" style="shape=parallelogram;html=1;strokeWidth=2;perimeter=parallelogramPerimeter;whiteSpace=wrap;rounded=1;arcSize=12;size=0.23;" parent="1" vertex="1">
                    <mxGeometry x="570" y="655" width="92" height="60" as="geometry"/>
                </mxCell>
                <mxCell id="43" style="edgeStyle=none;html=1;entryX=0.5;entryY=0;entryDx=0;entryDy=0;" parent="1" source="30" target="23" edge="1">
                    <mxGeometry relative="1" as="geometry"/>
                </mxCell>
                <mxCell id="55" style="edgeStyle=orthogonalEdgeStyle;html=1;entryX=0;entryY=0.5;entryDx=0;entryDy=0;" edge="1" parent="1" source="30" target="24">
                    <mxGeometry relative="1" as="geometry"/>
                </mxCell>
                <mxCell id="30" value="&lt;span&gt;if number_entered_by_user == number&lt;/span&gt;" style="rhombus;whiteSpace=wrap;html=1;" parent="1" vertex="1">
                    <mxGeometry x="330" y="610" width="200" height="150" as="geometry"/>
                </mxCell>
                <mxCell id="52" value="False" style="text;html=1;resizable=0;autosize=1;align=center;verticalAlign=middle;points=[];fillColor=none;strokeColor=none;rounded=0;" parent="1" vertex="1">
                    <mxGeometry x="530" y="635" width="50" height="20" as="geometry"/>
                </mxCell>
                <mxCell id="53" value="True" style="text;html=1;resizable=0;autosize=1;align=center;verticalAlign=middle;points=[];fillColor=none;strokeColor=none;rounded=0;" parent="1" vertex="1">
                    <mxGeometry x="381" y="780" width="40" height="20" as="geometry"/>
                </mxCell>
                <mxCell id="72" style="edgeStyle=orthogonalEdgeStyle;rounded=0;html=1;entryX=0.5;entryY=0;entryDx=0;entryDy=0;" edge="1" parent="1" source="62" target="30">
                    <mxGeometry relative="1" as="geometry"/>
                </mxCell>
                <mxCell id="62" value="Generate random number" style="rounded=1;whiteSpace=wrap;html=1;absoluteArcSize=1;arcSize=14;strokeWidth=2;" vertex="1" parent="1">
                    <mxGeometry x="380" y="460" width="100" height="100" as="geometry"/>
                </mxCell>
            </root>
        </mxGraphModel>
    </diagram>
</mxfile>